<svg width="18" height="17" viewBox="0 0 18 17" fill="none" xmlns="http://www.w3.org/2000/svg">
<path opacity="0.5" d="M16.5897 8.17335L9.28112 15.1183C8.38576 15.9691 7.1714 16.447 5.90517 16.447C4.63894 16.447 3.42458 15.9691 2.52922 15.1183C1.63387 14.2675 1.13086 13.1135 1.13086 11.9103C1.13086 10.7071 1.63387 9.55315 2.52922 8.70234L9.83781 1.75743C10.4347 1.19023 11.2443 0.871582 12.0884 0.871582C12.9326 0.871582 13.7422 1.19023 14.3391 1.75743C14.936 2.32464 15.2713 3.09393 15.2713 3.89607C15.2713 4.69822 14.936 5.46751 14.3391 6.03471L7.02253 12.9796C6.72408 13.2632 6.31929 13.4225 5.89722 13.4225C5.47514 13.4225 5.07035 13.2632 4.7719 12.9796C4.47345 12.696 4.30578 12.3114 4.30578 11.9103C4.30578 11.5092 4.47345 11.1246 4.7719 10.841L11.5238 4.43262" stroke="#06152B" stroke-linecap="round" stroke-linejoin="round"/>
</svg>
