<svg width="26" height="27" viewBox="0 0 26 27" fill="none" xmlns="http://www.w3.org/2000/svg">
<path d="M2.25222 3.10075C2.86049 3.10075 3.35359 2.60765 3.35359 1.99938C3.35359 1.39111 2.86049 0.89801 2.25222 0.89801C1.64395 0.89801 1.15085 1.39111 1.15085 1.99938C1.15085 2.60765 1.64395 3.10075 2.25222 3.10075Z" stroke="#00AFEF" stroke-miterlimit="10"/>
<path d="M7.45837 8.90793C8.06664 8.90793 8.55974 8.41483 8.55974 7.80656C8.55974 7.19829 8.06664 6.70518 7.45837 6.70518C6.8501 6.70518 6.35699 7.19829 6.35699 7.80656C6.35699 8.41483 6.8501 8.90793 7.45837 8.90793Z" stroke="#00AFEF" stroke-miterlimit="10"/>
<path d="M16.9703 5.4037C17.5785 5.4037 18.0716 4.9106 18.0716 4.30233C18.0716 3.69406 17.5785 3.20096 16.9703 3.20096C16.362 3.20096 15.8689 3.69406 15.8689 4.30233C15.8689 4.9106 16.362 5.4037 16.9703 5.4037Z" stroke="#00AFEF" stroke-miterlimit="10"/>
<path d="M19.5729 7.6062C20.1812 7.6062 20.6743 7.1131 20.6743 6.50483C20.6743 5.89656 20.1812 5.40346 19.5729 5.40346C18.9647 5.40346 18.4716 5.89656 18.4716 6.50483C18.4716 7.1131 18.9647 7.6062 19.5729 7.6062Z" stroke="#00AFEF" stroke-miterlimit="10"/>
<path d="M16.7702 10.2097C17.3785 10.2097 17.8716 9.71657 17.8716 9.1083C17.8716 8.50003 17.3785 8.00693 16.7702 8.00693C16.1619 8.00693 15.6688 8.50003 15.6688 9.1083C15.6688 9.71657 16.1619 10.2097 16.7702 10.2097Z" stroke="#00AFEF" stroke-miterlimit="10"/>
<path d="M2.10137 12.3121C2.70964 12.3121 3.20274 11.819 3.20274 11.2108C3.20274 10.6025 2.70964 10.1094 2.10137 10.1094C1.4931 10.1094 1 10.6025 1 11.2108C1 11.819 1.4931 12.3121 2.10137 12.3121Z" stroke="#00AFEF" stroke-miterlimit="10"/>
<path d="M2.10137 18.0193C2.70964 18.0193 3.20274 17.5262 3.20274 16.9179C3.20274 16.3096 2.70964 15.8165 2.10137 15.8165C1.4931 15.8165 1 16.3096 1 16.9179C1 17.5262 1.4931 18.0193 2.10137 18.0193Z" stroke="#00AFEF" stroke-miterlimit="10"/>
<path d="M7.5584 13.0132C8.16667 13.0132 8.65978 12.5201 8.65978 11.9118C8.65978 11.3036 8.16667 10.8105 7.5584 10.8105C6.95013 10.8105 6.45703 11.3036 6.45703 11.9118C6.45703 12.5201 6.95013 13.0132 7.5584 13.0132Z" stroke="#00AFEF" stroke-miterlimit="10"/>
<path d="M5.95614 21.0233C6.56441 21.0233 7.05751 20.5302 7.05751 19.9219C7.05751 19.3137 6.56441 18.8206 5.95614 18.8206C5.34787 18.8206 4.85477 19.3137 4.85477 19.9219C4.85477 20.5302 5.34787 21.0233 5.95614 21.0233Z" stroke="#00AFEF" stroke-miterlimit="10"/>
<path d="M9.15987 23.8264C9.76815 23.8264 10.2612 23.3333 10.2612 22.7251C10.2612 22.1168 9.76815 21.6237 9.15987 21.6237C8.5516 21.6237 8.0585 22.1168 8.0585 22.7251C8.0585 23.3333 8.5516 23.8264 9.15987 23.8264Z" stroke="#00AFEF" stroke-miterlimit="10"/>
<path d="M2.25131 3.10091V6.77949L4.66832 9.1945V3.60153L7.4598 5.40378V6.77949" stroke="#00AFEF" stroke-miterlimit="10"/>
<path d="M4.66898 9.19432V13.2714L5.85646 14.8153V18.7923" stroke="#00AFEF" stroke-miterlimit="10"/>
<path d="M2.05124 12.2122V15.8167" stroke="#00AFEF" stroke-miterlimit="10"/>
<path d="M7.45984 13.0133V17.3687L11.4528 13.3758V7.00583L9.77072 5.32373V1.59909" stroke="#00AFEF" stroke-miterlimit="10"/>
<path d="M9.16214 21.6238V18.1895L12.4963 14.8554H14.4688V11.9117L12.9449 10.8103V7.60635H15.4039L16.0647 8.26718" stroke="#00AFEF" stroke-miterlimit="10"/>
<path d="M19.5736 7.60644V12.2122H16.0653V14.8154H19.848L21.0755 12.6127V10.5541C21.8004 10.5541 22.5654 10.6282 23.2783 10.5541C23.3524 10.5541 23.5886 10.6002 23.6507 10.5541C23.887 10.3779 23.6828 9.71506 23.6387 9.43672C23.1942 6.60319 21.472 4.10207 19.1131 2.46003C16.7541 0.817981 13.9446 1.19445 11.2633 1.19445V2.45001C11.2633 2.97467 11.0811 3.92786 11.3214 4.39243C11.4876 4.71684 11.828 4.93111 12.0242 5.20945L12.4548 5.60995C12.5689 5.67003 12.655 5.8102 12.7832 5.86827C12.8641 5.89676 12.95 5.90835 13.0355 5.90232L14.8838 5.90432C14.9979 5.90868 15.1121 5.89994 15.2242 5.87829C15.6428 5.78016 15.8991 5.34762 16.2896 5.1694" stroke="#00AFEF" stroke-miterlimit="10"/>
<path d="M22.7374 6.70518H20.6749" stroke="#00AFEF" stroke-miterlimit="10"/>
<path d="M23.6943 10.2094C23.7324 10.7321 23.7184 11.8955 23.7083 12.4122C23.7144 12.7393 23.6566 13.0644 23.5381 13.3694C23.426 13.6337 23.1376 13.89 23.1076 14.1904C23.1062 14.2449 23.1171 14.299 23.1396 14.3486C23.5742 15.3618 24.0408 16.3511 24.4853 17.3523C24.6856 17.7929 25.3744 19.1546 24.7316 19.513C24.5033 19.6412 23.8365 19.513 23.5742 19.513H22.7391C22.9194 20.0777 23.1036 20.6404 23.2798 21.2071L22.0783 21.8079C22.3246 22.1163 22.9073 22.6089 22.7331 22.9273C22.631 23.1275 22.2545 23.3057 22.0783 23.4439C22.0783 24.1848 22.3306 25.2041 21.5857 25.6467C20.7507 26.1393 19.8555 26.1933 18.9184 25.9931C17.797 25.7568 16.7597 25.2542 15.7144 24.8036C14.8585 24.4173 14.089 23.863 13.4516 23.1736C12.8648 22.5608 12.0939 21.7518 11.8135 20.9368C11.5732 20.2459 11.7775 19.517 11.7775 18.8081" stroke="#00AFEF" stroke-miterlimit="10"/>
</svg>
