<svg width="22" height="22" viewBox="0 0 22 22" fill="none" xmlns="http://www.w3.org/2000/svg">
<path d="M8.24999 3.66666H4.58332C4.07706 3.66666 3.66666 4.07707 3.66666 4.58333V8.25C3.66666 8.75626 4.07706 9.16666 4.58332 9.16666H8.24999C8.75625 9.16666 9.16666 8.75626 9.16666 8.25V4.58333C9.16666 4.07707 8.75625 3.66666 8.24999 3.66666Z" stroke="#64748B" stroke-width="2" stroke-linecap="round" stroke-linejoin="round"/>
<path d="M17.4167 3.66666H13.75C13.2437 3.66666 12.8333 4.07707 12.8333 4.58333V8.25C12.8333 8.75626 13.2437 9.16666 13.75 9.16666H17.4167C17.9229 9.16666 18.3333 8.75626 18.3333 8.25V4.58333C18.3333 4.07707 17.9229 3.66666 17.4167 3.66666Z" stroke="#64748B" stroke-width="2" stroke-linecap="round" stroke-linejoin="round"/>
<path d="M8.24999 12.8333H4.58332C4.07706 12.8333 3.66666 13.2437 3.66666 13.75V17.4167C3.66666 17.9229 4.07706 18.3333 4.58332 18.3333H8.24999C8.75625 18.3333 9.16666 17.9229 9.16666 17.4167V13.75C9.16666 13.2437 8.75625 12.8333 8.24999 12.8333Z" stroke="#64748B" stroke-width="2" stroke-linecap="round" stroke-linejoin="round"/>
<path d="M17.4167 12.8333H13.75C13.2437 12.8333 12.8333 13.2437 12.8333 13.75V17.4167C12.8333 17.9229 13.2437 18.3333 13.75 18.3333H17.4167C17.9229 18.3333 18.3333 17.9229 18.3333 17.4167V13.75C18.3333 13.2437 17.9229 12.8333 17.4167 12.8333Z" stroke="#64748B" stroke-width="2" stroke-linecap="round" stroke-linejoin="round"/>
</svg>
