<svg width="42" height="42" viewBox="0 0 42 42" fill="none" xmlns="http://www.w3.org/2000/svg">
<path fill-rule="evenodd" clip-rule="evenodd" d="M11.3422 21.5C11.3422 20.8557 11.8646 20.3333 12.5089 20.3333H21.8422C22.4866 20.3333 23.0089 20.8557 23.0089 21.5C23.0089 22.1443 22.4866 22.6667 21.8422 22.6667H12.5089C11.8646 22.6667 11.3422 22.1443 11.3422 21.5Z" fill="#6F767E"/>
<path fill-rule="evenodd" clip-rule="evenodd" d="M11.3422 26.1667C11.3422 25.5223 11.8646 25 12.5089 25H17.1756C17.8199 25 18.3422 25.5223 18.3422 26.1667C18.3422 26.811 17.8199 27.3333 17.1756 27.3333H12.5089C11.8646 27.3333 11.3422 26.811 11.3422 26.1667Z" fill="#6F767E"/>
<path fill-rule="evenodd" clip-rule="evenodd" d="M11.0151 31.3741C11.4344 31.0247 11.963 30.8333 12.5089 30.8333H25.3422C25.9865 30.8333 26.5089 30.311 26.5089 29.6667V18C26.5089 17.3557 25.9865 16.8333 25.3422 16.8333H9.00885C8.36452 16.8333 7.84218 17.3557 7.84218 18V34.0182L11.0151 31.3741ZM12.5089 33.1667H25.3422C27.2752 33.1667 28.8422 31.5997 28.8422 29.6667V18C28.8422 16.067 27.2752 14.5 25.3422 14.5H9.00885C7.07585 14.5 5.50885 16.067 5.50885 18V34.0182C5.50885 35.9965 7.81618 37.0772 9.33594 35.8108L12.5089 33.1667Z" fill="#6F767E"/>
<rect x="21.6853" y="10.0439" width="10.3008" height="10.3008" rx="5.15039" fill="#00AFEF"/>
<rect x="21.6853" y="10.0439" width="10.3008" height="10.3008" rx="5.15039" stroke="#FCFCFC" stroke-width="1.7168"/>
</svg>
