<svg width="42" height="42" viewBox="0 0 42 42" fill="none" xmlns="http://www.w3.org/2000/svg">
<path fill-rule="evenodd" clip-rule="evenodd" d="M5.50885 30.3619C5.50885 29.9176 5.68934 29.4923 6.00892 29.1837L7.20937 28.0242C7.66635 27.5828 7.92359 26.9742 7.92168 26.3389L7.91064 22.6604C7.89519 17.5137 12.0631 13.3333 17.2097 13.3333C22.3455 13.3333 26.5088 17.4967 26.5088 22.6324L26.5088 26.3668C26.5088 26.9857 26.7547 27.5792 27.1923 28.0167L28.3589 29.1834C28.6683 29.4928 28.8422 29.9125 28.8422 30.3501C28.8422 31.2613 28.1035 32 27.1923 32H21.8422C21.8422 34.5773 19.7528 36.6667 17.1755 36.6667C14.5982 36.6667 12.5089 34.5773 12.5089 32H7.14694C6.24225 32 5.50885 31.2666 5.50885 30.3619ZM14.8422 32C14.8422 33.2887 15.8869 34.3333 17.1755 34.3333C18.4642 34.3333 19.5089 33.2887 19.5089 32H14.8422ZM24.1755 26.3668C24.1755 27.6045 24.6672 28.7915 25.5423 29.6667L8.86711 29.6667C9.75811 28.787 10.2588 27.5854 10.255 26.3319L10.244 22.6534C10.2324 18.7981 13.3544 15.6667 17.2097 15.6667C21.0568 15.6667 24.1755 18.7853 24.1755 22.6324L24.1755 26.3668Z" fill="#6F767E"/>
<rect x="21.8884" y="10.0439" width="10.3008" height="10.3008" rx="5.15039" fill="#00AFEF"/>
<rect x="21.8884" y="10.0439" width="10.3008" height="10.3008" rx="5.15039" stroke="#FCFCFC" stroke-width="1.7168"/>
</svg>
