<svg width="24" height="24" viewBox="0 0 24 24" fill="none" xmlns="http://www.w3.org/2000/svg">
<path fill-rule="evenodd" clip-rule="evenodd" d="M10 10.01C10.5523 10.01 11 10.4577 11 11.01V16.01C11 16.5623 10.5523 17.01 10 17.01C9.44772 17.01 9 16.5623 9 16.01V11.01C9 10.4577 9.44772 10.01 10 10.01Z" fill="#6F767E"/>
<path fill-rule="evenodd" clip-rule="evenodd" d="M14 10.01C14.5523 10.01 15 10.4577 15 11.01V16.01C15 16.5623 14.5523 17.01 14 17.01C13.4477 17.01 13 16.5623 13 16.01V11.01C13 10.4577 13.4477 10.01 14 10.01Z" fill="#6F767E"/>
<path fill-rule="evenodd" clip-rule="evenodd" d="M10 2.01C8.34315 2.01 7 3.35315 7 5.01H4H3C2.44772 5.01 2 5.45772 2 6.01C2 6.56229 2.44772 7.01 3 7.01H4V19.01C4 20.6669 5.34315 22.01 7 22.01H17C18.6569 22.01 20 20.6669 20 19.01V7.01H21C21.5523 7.01 22 6.56229 22 6.01C22 5.45772 21.5523 5.01 21 5.01H20H17C17 3.35315 15.6569 2.01 14 2.01H10ZM15 5.01C15 4.45772 14.5523 4.01 14 4.01H10C9.44772 4.01 9 4.45772 9 5.01H15ZM7 7.01H6V19.01C6 19.5623 6.44772 20.01 7 20.01H17C17.5523 20.01 18 19.5623 18 19.01V7.01H17H7Z" fill="#6F767E"/>
</svg>
