<svg width="21" height="22" viewBox="0 0 21 22" fill="none" xmlns="http://www.w3.org/2000/svg">
<path fill-rule="evenodd" clip-rule="evenodd" d="M15.6543 10.3447C15.6543 13.6633 12.9641 16.3535 9.64551 16.3535C6.32694 16.3535 3.63672 13.6633 3.63672 10.3447C3.63672 7.02616 6.32694 4.33594 9.64551 4.33594C12.9641 4.33594 15.6543 7.02616 15.6543 10.3447ZM15.6817 15.1669C16.7389 13.8453 17.3711 12.1688 17.3711 10.3447C17.3711 6.078 13.9122 2.61914 9.64551 2.61914C5.37878 2.61914 1.91992 6.078 1.91992 10.3447C1.91992 14.6115 5.37878 18.0703 9.64551 18.0703C11.4696 18.0703 13.1461 17.4381 14.4677 16.3809L16.7641 18.6773C17.0993 19.0125 17.6428 19.0125 17.9781 18.6773C18.3133 18.3421 18.3133 17.7986 17.9781 17.4633L15.6817 15.1669Z" fill="#6F767E"/>
</svg>
