<svg width="15" height="15" viewBox="0 0 15 15" fill="none" xmlns="http://www.w3.org/2000/svg">
<path d="M14.125 15C12.3889 15 10.6736 14.6217 8.97917 13.865C7.28472 13.1083 5.74306 12.0353 4.35417 10.6458C2.96528 9.25694 1.8925 7.71528 1.13583 6.02083C0.379167 4.32639 0.000555556 2.61111 0 0.875C0 0.625 0.0833333 0.416667 0.25 0.25C0.416667 0.0833333 0.625 0 0.875 0H4.25C4.44444 0 4.61806 0.066111 4.77083 0.198333C4.92361 0.330555 5.01389 0.486667 5.04167 0.666667L5.58333 3.58333C5.61111 3.80556 5.60417 3.99306 5.5625 4.14583C5.52083 4.29861 5.44444 4.43056 5.33333 4.54167L3.3125 6.58333C3.59028 7.09722 3.92 7.59361 4.30167 8.0725C4.68333 8.55139 5.10361 9.01333 5.5625 9.45833C5.99306 9.88889 6.44444 10.2883 6.91667 10.6567C7.38889 11.025 7.88889 11.3617 8.41667 11.6667L10.375 9.70833C10.5 9.58333 10.6633 9.48972 10.865 9.4275C11.0667 9.36528 11.2644 9.34778 11.4583 9.375L14.3333 9.95833C14.5278 10.0139 14.6875 10.1147 14.8125 10.2608C14.9375 10.4069 15 10.57 15 10.75V14.125C15 14.375 14.9167 14.5833 14.75 14.75C14.5833 14.9167 14.375 15 14.125 15Z" fill="black"/>
</svg>
